
<svg width="269px" height="238px" viewBox="7 13 269 238" version="1.1" xmlns="http://www.w3.org/2000/svg" xmlns:xlink="http://www.w3.org/1999/xlink">
    <!-- Generator: Sketch 42 (36781) - http://www.bohemiancoding.com/sketch -->
    <desc>Created with Sketch.</desc>
    <defs></defs>
    <g id="Group" stroke="none" stroke-width="1" fill="none" fill-rule="evenodd" transform="translate(8.000000, 14.000000)">
        <path d="M215.257275,207.923187 C215.257275,207.923187 201.028393,211.468431 207.080977,224.115492 C213.133561,236.762553 218.949439,236.440962 223.111697,236.440962 C227.273955,236.440962 231.434,226.214126 226.147944,216.433762 C220.861888,206.653398 215.257275,207.923187 215.257275,207.923187 Z" id="Path-2" stroke="#5C9AA1" fill="#5C9AA1" transform="translate(217.108508, 222.155473) rotate(101.000000) translate(-217.108508, -222.155473) "></path>
        <path d="M255.8479,125.939572 C255.8479,125.939572 249.12697,124.223452 249.12697,134.484585 C249.12697,144.745719 254.561277,144.091586 255.782358,144.091586 C257.003439,144.091586 264.038545,143.148467 264.038545,134.913082 C264.038545,126.677696 255.8479,125.939572 255.8479,125.939572 Z" id="Path-3" stroke="#16386E" fill="#16386E" transform="translate(256.582757, 134.965853) rotate(101.000000) translate(-256.582757, -134.965853) "></path>
        <path d="M137.587359,213.557059 C137.587359,213.557059 148.797599,217.97951 150.591615,211.65931 C152.385631,205.339111 147.953851,201.836395 144.375162,201.836395 C140.796474,201.836395 135.956368,206.21479 134.78652,208.93705 C133.616672,211.65931 137.587359,213.557059 137.587359,213.557059 Z" id="Path-4" stroke="#D1B6B6" fill="#D1B6B6" transform="translate(142.787248, 208.448918) rotate(101.000000) translate(-142.787248, -208.448918) "></path>
        <path d="M94.7582011,135.846602 C94.7582011,135.846602 84.4914296,135.949088 84.4914296,148.919276 C84.4914296,161.889463 89.311387,163.24228 90.9400745,163.24228 C92.5687619,163.24228 102.290738,163.581623 102.290738,149.600239 C102.290738,135.618855 94.7582011,135.846602 94.7582011,135.846602 Z" id="Path-5" stroke="#E37C30" fill="#E37C30" transform="translate(93.391084, 149.544691) rotate(101.000000) translate(-93.391084, -149.544691) "></path>
        <path d="M186.284166,114.200237 C186.284166,114.200237 177.123584,113.972244 177.123584,123.798112 C177.123584,133.62398 179.411497,137.237498 183.95935,137.998091 C188.507203,138.758684 200.190481,133.145547 197.655357,124.581869 C195.120232,116.01819 186.284166,114.200237 186.284166,114.200237 Z" id="Path-6" stroke="#CD624E" fill="#CD624E" transform="translate(187.567419, 126.133349) rotate(101.000000) translate(-187.567419, -126.133349) "></path>
        <path d="M42.7487881,68.9718991 C42.7487881,68.9718991 32.0812957,71.0054646 32.0812957,90.7722632 C32.0812957,110.539062 35.946736,112.495232 38.8651822,112.495232 C41.7836284,112.495232 51.1935354,115.372408 53.1979095,89.1701773 C55.2022836,62.9679469 42.7487881,68.9718991 42.7487881,68.9718991 Z" id="Path-7" stroke="#F1B85C" fill="#F1B85C" transform="translate(42.748788, 90.483738) rotate(101.000000) translate(-42.748788, -90.483738) "></path>
        <path d="M209.102159,52.4160867 C209.102159,52.4160867 197.720949,52.458688 197.720949,63.796234 C197.720949,75.13378 209.745109,73.0541649 211.317136,73.0541649 C212.889164,73.0541649 220.356576,68.2592786 218.621847,60.3376827 C216.887119,52.4160867 209.102159,52.4160867 209.102159,52.4160867 Z" id="Path-9" stroke="#F0E6A0" fill="#F0E6A0" transform="translate(208.301224, 62.810028) rotate(101.000000) translate(-208.301224, -62.810028) "></path>
        <path d="M13.1213409,6.17539702 C13.1213409,6.17539702 -3.56946426,0.128370005 0.184553284,14.4330123 C3.93857083,28.7376545 21.8361855,26.4536853 23.8776481,24.4227239 C25.9191106,22.3917624 28.2105303,16.4537673 25.0438248,11.899332 C21.8771193,7.34489665 13.1213409,6.17539702 13.1213409,6.17539702 Z" id="Path-10" stroke="#DEC2C3" fill="#DEC2C3" transform="translate(13.121341, 15.417556) rotate(101.000000) translate(-13.121341, -15.417556) "></path>
        <path d="M25.9210577,150.544082 C25.9210577,150.544082 30.4414137,148.030439 30.4414137,153.425603 C30.4414137,158.820768 26.3538984,157.630242 25.3678387,157.630242 C24.3817789,157.630242 22.6993376,156.475037 22.6993376,154.145042 C22.6993376,151.815047 25.9210577,150.544082 25.9210577,150.544082 Z" id="Path-11" stroke="#2A6369" fill="#2A6369" transform="translate(26.570376, 153.850556) rotate(101.000000) translate(-26.570376, -153.850556) "></path>
        <path d="M155.131412,53.3253796 C155.131412,53.3253796 149.727338,54.5366807 152.522845,58.397453 C155.318351,62.2582253 157.371284,58.8103075 157.371284,58.8103075 C157.371284,58.8103075 159.440349,56.3594214 158.910258,54.5165585 C158.380167,52.6736957 155.131412,53.3253796 155.131412,53.3253796 Z" id="Path-12" stroke="#E0D7DE" fill="#E0D7DE" transform="translate(155.358650, 56.720441) rotate(101.000000) translate(-155.358650, -56.720441) "></path>
        <path d="M163.516902,68.5865948 C163.516902,68.5865948 158.754563,69.3514338 161.55007,73.2122061 C164.345576,77.0729784 166.955946,73.2122061 166.955946,73.2122061 C166.955946,73.2122061 167.602655,71.9280566 167.072564,70.0851938 C166.542473,68.2423309 163.516902,68.5865948 163.516902,68.5865948 Z" id="Path-12" stroke="#16386E" fill="#16386E" transform="translate(163.975938, 71.744615) rotate(101.000000) translate(-163.975938, -71.744615) "></path>
    </g>
</svg>